ply
format ascii 1.0          
comment made by Philip Klaus
comment Colored cube example
element vertex 8           
property float x
property float y
property float z
property uchar red
property uchar green
property uchar blue
element face 12
property list uchar uint vertex_index
end_header
0 0 0 255 0 0
0 0 1 0 255 0
0 1 1 0 0 255
0 1 0 255 255 255
1 0 0 0 0 255
1 0 1 255 255 255
1 1 1 255 0 0
1 1 0 0 255 9
3 0 1 2 
3 0 2 3
3 7 6 5 
3 7 5 4
3 0 4 5
3 0 5 1
3 1 5 6
3 1 6 2
3 2 6 7
3 2 7 3
3 3 7 4
3 3 4 0